<?xml version="1.0" encoding="UTF-8"?>
<svg width="39px" height="121px" viewBox="0 0 39 121" version="1.1" xmlns="http://www.w3.org/2000/svg" xmlns:xlink="http://www.w3.org/1999/xlink">
    <!-- Generator: Sketch 42 (36781) - http://www.bohemiancoding.com/sketch -->
    <title>Capa_1</title>
    <desc>Created with Sketch.</desc>
    <defs>
        <linearGradient x1="0%" y1="-299.15733%" x2="100%" y2="107.023668%" id="linearGradient-1">
            <stop stop-color="#FF0000" offset="0%"></stop>
            <stop stop-color="#FFDE00" offset="100%"></stop>
        </linearGradient>
        <linearGradient x1="0%" y1="0%" x2="100%" y2="156.502768%" id="linearGradient-2">
            <stop stop-color="#FF0000" offset="0%"></stop>
            <stop stop-color="#FFDE00" offset="100%"></stop>
        </linearGradient>
    </defs>
    <g id="Page-1" stroke="none" stroke-width="1" fill="none" fill-rule="evenodd">
        <g id="Capa_1" fill-rule="nonzero">
            <g id="Group">
                <path d="M30.6341953,90.749699 L8.36428125,90.749699 C6.85607812,90.749699 5.55110156,91.294801 4.44874219,92.382597 C3.34729687,93.471296 2.79611719,94.7595547 2.79611719,96.2494801 L2.79611719,115.499015 C2.79611719,116.988338 3.34729687,118.277801 4.44874219,119.368005 C5.55201562,120.454597 6.85577344,120.999699 8.36428125,120.999699 L30.6360234,120.999699 C32.1417891,120.999699 33.447375,120.454597 34.5506484,119.368005 C35.6505703,118.278102 36.2020547,116.988639 36.2020547,115.499015 L36.2020547,96.2494801 C36.2020547,94.7598557 35.6496562,93.471597 34.5485156,92.382597 C33.4464609,91.293898 32.140875,90.749699 30.6341953,90.749699 Z" id="Shape" fill="url(#linearGradient-1)"></path>
                <path d="M37.2885703,1.63259701 C36.2157656,0.545402985 34.9257188,0 33.4169063,0 L5.58096094,0 C4.07336719,0 2.78392969,0.545402985 1.71051563,1.63259701 C0.637710938,2.72129602 0.13040625,4.0110597 0.188296875,5.50038308 L2.62335938,71.4980572 C2.68125,72.9873806 3.27508594,74.2780473 4.40639063,75.3649403 C5.53708594,76.4548433 6.85638281,76.9996443 8.36458594,76.9996443 L30.6363281,76.9996443 C32.1420938,76.9996443 33.4610859,76.4548433 34.5945234,75.3649403 C35.7249141,74.2783483 36.3169219,72.9876816 36.3775547,71.4980572 L38.8110937,5.50038308 C38.8714219,4.0110597 38.3616797,2.7225 37.2885703,1.63259701 Z" id="Shape" fill="url(#linearGradient-2)"></path>
            </g>
        </g>
    </g>
</svg>