<?xml version="1.0" encoding="UTF-8"?>
<svg width="18px" height="23px" viewBox="0 0 18 23" version="1.1" xmlns="http://www.w3.org/2000/svg" xmlns:xlink="http://www.w3.org/1999/xlink">
    <!-- Generator: Sketch 42 (36781) - http://www.bohemiancoding.com/sketch -->
    <title>Capa_1</title>
    <desc>Created with Sketch.</desc>
    <defs>
        <rect id="path-1" x="-122" y="-11" width="414" height="78"></rect>
        <mask id="mask-2" maskContentUnits="userSpaceOnUse" maskUnits="objectBoundingBox" x="0" y="0" width="414" height="78" fill="white">
            <use xlink:href="#path-1"></use>
        </mask>
        <linearGradient x1="-45.0831437%" y1="-133.403936%" x2="238.993135%" y2="314.7285%" id="linearGradient-3">
            <stop stop-color="#582FFF" offset="0%"></stop>
            <stop stop-color="#00A9FF" offset="100%"></stop>
        </linearGradient>
        <linearGradient x1="-37.9475637%" y1="-282.039886%" x2="238.972572%" y2="190.910917%" id="linearGradient-4">
            <stop stop-color="#582FFF" offset="0%"></stop>
            <stop stop-color="#00A9FF" offset="100%"></stop>
        </linearGradient>
        <linearGradient x1="-233.941382%" y1="-491.271304%" x2="158.980483%" y2="821.432615%" id="linearGradient-5">
            <stop stop-color="#582FFF" offset="0%"></stop>
            <stop stop-color="#00A9FF" offset="100%"></stop>
        </linearGradient>
        <linearGradient x1="-223.04402%" y1="-875.65205%" x2="155.841494%" y2="496.782643%" id="linearGradient-6">
            <stop stop-color="#582FFF" offset="0%"></stop>
            <stop stop-color="#00A9FF" offset="100%"></stop>
        </linearGradient>
        <linearGradient x1="0%" y1="9.25873254%" x2="100%" y2="100%" id="linearGradient-7">
            <stop stop-color="#582FFF" offset="0%"></stop>
            <stop stop-color="#00A9FF" offset="100%"></stop>
        </linearGradient>
    </defs>
    <g id="Page-1" stroke="none" stroke-width="1" fill="none" fill-rule="evenodd">
        <use id="Rectangle-7" stroke="#979797" mask="url(#mask-2)" stroke-width="2" xlink:href="#path-1"></use>
        <g id="wishlist-icon" transform="translate(-8.000000, 0.000000)" fill-rule="nonzero">
            <g id="shopping-list-hover" transform="translate(8.000000, 0.000000)">
                <g id="Capa_1">
                    <path d="M8.781,8.8363125 C8.4885,8.556 8.013,8.5545625 7.719,8.834875 L5.25,11.2024375 L4.281,10.272375 C3.9885,9.9920625 3.513,9.9920625 3.2205,10.272375 C2.928,10.5526875 2.928,11.008375 3.2205,11.2886875 L4.7205,12.7261875 C4.866,12.8670625 5.058,12.9375 5.25,12.9375 C5.442,12.9375 5.634,12.8670625 5.781,12.727625 L8.781,9.852625 C9.0735,9.5723125 9.0735,9.116625 8.781,8.8363125 Z" id="Shape" fill="url(#linearGradient-3)"></path>
                    <path d="M8.781,14.5863125 C8.4885,14.306 8.013,14.3045625 7.719,14.584875 L5.25,16.9524375 L4.281,16.0238125 C3.9885,15.7435 3.513,15.7435 3.2205,16.0238125 C2.928,16.304125 2.928,16.7598125 3.2205,17.040125 L4.7205,18.477625 C4.866,18.6170625 5.058,18.6875 5.25,18.6875 C5.442,18.6875 5.634,18.6170625 5.781,18.477625 L8.781,15.602625 C9.0735,15.3223125 9.0735,14.866625 8.781,14.5863125 Z" id="Shape" fill="url(#linearGradient-4)"></path>
                    <path d="M14.25,10.0625 L11.25,10.0625 C10.836,10.0625 10.5,10.3845 10.5,10.78125 C10.5,11.178 10.836,11.5 11.25,11.5 L14.25,11.5 C14.664,11.5 15,11.178 15,10.78125 C15,10.3845 14.664,10.0625 14.25,10.0625 Z" id="Shape" fill="url(#linearGradient-5)"></path>
                    <path d="M14.25,15.8125 L11.25,15.8125 C10.836,15.8125 10.5,16.1345 10.5,16.53125 C10.5,16.928 10.836,17.25 11.25,17.25 L14.25,17.25 C14.664,17.25 15,16.928 15,16.53125 C15,16.1345 14.664,15.8125 14.25,15.8125 Z" id="Shape" fill="url(#linearGradient-6)"></path>
                    <path d="M16.5,2.875 L13.5,2.875 L13.5,2.15625 C13.5,1.7595 13.164,1.4375 12.75,1.4375 L11.1225,1.4375 C10.812,0.600875 9.978,0 9,0 C8.022,0 7.188,0.600875 6.8775,1.4375 L5.25,1.4375 C4.836,1.4375 4.5,1.7595 4.5,2.15625 L4.5,2.875 L1.5,2.875 C0.6735,2.875 0,3.5204375 0,4.3125 L0,21.5625 C0,22.3545625 0.6735,23 1.5,23 L16.5,23 C17.3265,23 18,22.3545625 18,21.5625 L18,4.3125 C18,3.5204375 17.3265,2.875 16.5,2.875 Z M6,2.875 L7.5,2.875 C7.914,2.875 8.25,2.553 8.25,2.15625 C8.25,1.7595 8.586,1.4375 9,1.4375 C9.414,1.4375 9.75,1.7595 9.75,2.15625 C9.75,2.553 10.086,2.875 10.5,2.875 L12,2.875 L12,4.3125 L6,4.3125 L6,2.875 Z M16.5,21.5625 L1.5,21.5625 L1.5,4.3125 L4.5,4.3125 L4.5,5.03125 C4.5,5.428 4.836,5.75 5.25,5.75 L12.75,5.75 C13.164,5.75 13.5,5.428 13.5,5.03125 L13.5,4.3125 L16.5,4.3125 L16.5,21.5625 Z" id="Shape" fill="url(#linearGradient-7)"></path>
                </g>
            </g>
        </g>
    </g>
</svg>